<svg xmlns="http://www.w3.org/2000/svg" viewBox="0 0 1618.58 1278.46"><defs><style>.cls-1{fill:#fae0b2;}.cls-2{fill:#466eb6;}.cls-3{fill:#355389;}.cls-4{fill:#f48c7f;}.cls-5{fill:#f47458;}.cls-6{fill:#f7cc7f;}.cls-7{fill:#fff;}.cls-8{fill:#13375b;}.cls-9{fill:#96d9c9;}.cls-10{fill:#86b1f2;}.cls-11{fill:#50bfa5;}.cls-12{fill:#f7a491;}.cls-13{fill:#3c8f7c;}.cls-14{fill:#184655;}.cls-15{fill:#b75742;}.cls-16{fill:#f8a492;}</style></defs><g id="Layer_2" data-name="Layer 2"><g id="Layer_1-2" data-name="Layer 1"><path class="cls-1" d="M140.21,954.91l-16.38-9.29a91.72,91.72,0,0,1-15.39,18.56A11.46,11.46,0,0,1,92.77,964l-.53-.51a11.44,11.44,0,0,1,.3-16.78,66.72,66.72,0,0,0,13.83-16.88c5.57-9.82,5.59-18.7-1.3-22.61-6.55-3.72-13.82-.55-25.37,9.77C63,931.88,47.27,939.58,30.55,930.09c-15.18-8.6-21-26-14.17-46.54L0,874.26l9.58-16.9L24.76,866A84.1,84.1,0,0,1,36,851.52,11.44,11.44,0,0,1,52,851.34h0a11.45,11.45,0,0,1,0,16.48,60.48,60.48,0,0,0-10.74,13.93c-6.36,11.2-3.58,17.56,1.25,20.3,5.69,3.22,12.73-.76,26.56-12.28,18.88-16.41,33.05-19.31,48.57-10.51,15.35,8.7,22.29,27,14.49,48.78l17.59,10Z"/><path class="cls-2" d="M928.12,1217.85c41.3-55.6,74.48-56.08,74.48-56.08s15-97.67,3-139.21-66.33-5.12-66.33-5.12,72-141.16,42.48-157c-55-29.54-141.69,120.2-141.69,120.2s20.3-65.91-18.61-65.66c-58.67.36-63.75,151.48-63.75,151.48s-11.57-29.77-47.77-12.71c-39,18.37-49.55,129-51.77,214.51H863.75C893.16,1250.23,917.18,1232.57,928.12,1217.85Z"/><path class="cls-3" d="M847.29,968.58s2.42-75.1-36.49-74.86c-58.68.37-53.06,172.72-53.06,172.72s-24.51-48.76-60.71-31.7c-39.73,18.72-44.45,141-42.89,233.5h68.28L981.79,860.42C926.77,830.88,847.29,968.58,847.29,968.58Z"/><path class="cls-2" d="M1166.79,1263.35s187.31,21.57,232.69,5.68,15.32-41.3,15.32-41.3,96-12.26,105.22-40.82-36.15-28.74-36.15-28.74,96.32-53.14,85.51-73.75c-20.14-38.38-128.22,14-128.22,14s37.31-30,14.85-45c-33.88-22.62-95.59,62.29-95.59,62.29s4.93-21.62-22.51-25.9C1288.66,1082.14,1166.79,1263.35,1166.79,1263.35Z"/><path class="cls-3" d="M1337.85,1073.86c27.45,4.28,22.57,41.85,22.57,41.85s63.82-101.27,97.7-78.66c22.46,15-8.14,57.23-8.14,57.23s99.26-48.24,119.4-9.86l-384.65,166.93C1198.85,1230.12,1291.85,1066.69,1337.85,1073.86Z"/><path class="cls-2" d="M1165.63,1266.08s170.45-118.59,195-170.73-22.44-47.79-22.44-47.79,70.12-92.33,53.48-124.23-54.93,6.76-54.93,6.76,35.46-127,8.76-135c-49.73-15-98.38,145.77-98.38,145.77s-18.57-89-50.26-82.35c-47.79,10-.11,141.49-.11,141.49s-14.09-42.84-40.8-23C1108,1012.65,1165.63,1266.08,1165.63,1266.08Z"/><path class="cls-3" d="M1109.29,979.05c30.1-14.24,36.14-44.19,36.14-44.19s.2-74.37,48-84.34c31.69-6.61,53.87,53.14,53.87,53.14s48.45-123.64,98.18-108.61l-180.35,469C1158.83,1234.19,1073.44,996,1109.29,979.05Z"/><path class="cls-4" d="M1113.08,1266.45H769.37a19.85,19.85,0,0,1-19.85-19.85h0a19.85,19.85,0,0,1,19.85-19.84h343.71a19.85,19.85,0,0,1,19.85,19.84h0A19.85,19.85,0,0,1,1113.08,1266.45Z"/><path class="cls-5" d="M1173.19,1227.93H829.48a19.84,19.84,0,0,1-19.84-19.84h0a19.85,19.85,0,0,1,19.84-19.85h343.71a19.85,19.85,0,0,1,19.85,19.85h0A19.85,19.85,0,0,1,1173.19,1227.93Z"/><path class="cls-4" d="M1125.1,1191.45H781.39a19.85,19.85,0,0,1-19.84-19.85h0a19.84,19.84,0,0,1,19.84-19.84H1125.1A19.85,19.85,0,0,1,1145,1171.6h0A19.85,19.85,0,0,1,1125.1,1191.45Z"/><path class="cls-5" d="M1085,1151.92H741.32a19.84,19.84,0,0,1-19.85-19.84h0a19.84,19.84,0,0,1,19.85-19.85H1085a19.84,19.84,0,0,1,19.85,19.85h0A19.84,19.84,0,0,1,1085,1151.92Z"/><circle class="cls-1" cx="1156.64" cy="1106.14" r="171.85"/><circle class="cls-6" cx="1156.64" cy="1106.14" r="144.21" transform="translate(-443.39 1141.85) rotate(-45)"/><path class="cls-7" d="M1112,1198.73l8.2-22.63a117.11,117.11,0,0,1-26.68-15.43,14.66,14.66,0,0,1-3.07-19.8l.52-.77a14.62,14.62,0,0,1,21.22-3.21,85.55,85.55,0,0,0,24.23,13.82c13.58,4.92,24.77,3,28.23-6.48,3.28-9-2.27-17.53-17.74-29.88-22.39-17.82-35.46-36-27.08-59.15,7.6-21,28.33-32,55.64-27.8l8.2-22.63,23.35,8.46-7.6,21a108.13,108.13,0,0,1,20.6,11,14.64,14.64,0,0,1,3.67,20.25h0a14.63,14.63,0,0,1-20.76,3.55,78,78,0,0,0-19.86-10.55c-15.48-5.62-22.9-.76-25.32,5.91-2.85,7.86,3.67,15.89,21.16,30.85,24.72,20.29,31.41,37.54,23.63,59-7.69,21.2-29.26,33.87-58.38,28.7l-8.81,24.3Z"/><path class="cls-3" d="M536.88,1259.47s-267-131.68-313-200.35,21.58-72.57,21.58-72.57-119.17-115.9-102.4-164.7,79.33-2.17,79.33-2.17S145,647.23,181.08,630.09c67.3-31.94,161.71,151.59,161.71,151.59s-20.29-79.73,26-77.14c69.89,3.91,67,184.26,67,184.26s7.9-69.15,50-46.69C561.44,882.41,536.88,1259.47,536.88,1259.47Z"/><path class="cls-2" d="M501.07,814.21c-32.9-18.25-65.66,35.1-65.66,35.1s3.32-140.86-66.57-144.77c-46.34-2.59-26,77.14-26,77.14S248.38,598.15,181.08,630.09l356.1,626.45C539.7,1212.79,566.23,850.37,501.07,814.21Z"/><path class="cls-3" d="M530,1261.1s-218.41,27.12-275,3-16-54-16-54-121.43-23.87-130.8-61.12,48.6-33.59,48.6-33.59S38.4,1039.23,54,1013.85c29-47.27,162.46,28.84,162.46,28.84s-45.05-41.48-15.09-58.7C246.52,958,318,1071.7,318,1071.7s-4.44-28,31-31.13C412.48,1035,530,1261.1,530,1261.1Z"/><path class="cls-2" d="M350.39,1020.22C315,1023.32,318,1071.7,318,1071.7S245.22,937,200,962.92c-29.95,17.22,5.49,73.75,5.49,73.75S83,966.58,54,1013.85l476.67,246C514.43,1231.58,409.72,1015,350.39,1020.22Z"/><path class="cls-8" d="M75.56,1272.32h0a6.14,6.14,0,0,0,6.14,6.14H1612.44a6.14,6.14,0,0,0,6.14-6.14h0a6.14,6.14,0,0,0-6.14-6.14H81.7A6.14,6.14,0,0,0,75.56,1272.32Z"/><polygon class="cls-2" points="1146.96 204.38 1139.18 223.79 1106.56 214.72 1091.67 241.69 1066.16 238.89 1064.74 251.8 1098.87 255.56 1112.97 229.99 1146.9 239.44 1158.62 210.23 1146.96 204.38"/><path class="cls-9" d="M1263,724.33l8-19.89a104.69,104.69,0,0,1-23.28-14.57,13.06,13.06,0,0,1-2.11-17.73l.49-.67a13,13,0,0,1,19-2.19,76.14,76.14,0,0,0,21.14,13.06c11.94,4.81,22,3.5,25.33-4.88,3.21-8-1.47-15.68-14.85-27.16-19.37-16.57-30.44-33.2-22.25-53.51,7.42-18.43,26.23-27.64,50.41-23l8-19.9,20.52,8.27L1346,580.58A95.88,95.88,0,0,1,1364,591a13,13,0,0,1,2.63,18.14h0a13,13,0,0,1-18.59,2.51,69.48,69.48,0,0,0-17.35-10c-13.61-5.48-20.37-1.39-22.73,4.47-2.78,6.91,2.77,14.26,17.87,28.13,21.38,18.84,26.79,34.41,19.19,53.25-7.51,18.64-27.11,29.24-52.88,23.72l-8.61,21.36Z"/><path class="cls-1" d="M822.49,1266.22H418.78a29.13,29.13,0,0,1-29.13-29.12h0A29.13,29.13,0,0,1,418.78,1208H822.49a29.12,29.12,0,0,1,29.12,29.13h0A29.12,29.12,0,0,1,822.49,1266.22Z"/><path class="cls-6" d="M883.17,1208.57h-380A29.13,29.13,0,0,1,474,1179.44h0a29.13,29.13,0,0,1,29.13-29.12h380a29.12,29.12,0,0,1,29.12,29.12h0A29.12,29.12,0,0,1,883.17,1208.57Z"/><rect class="cls-1" x="437.02" y="1092.03" width="420.47" height="58.27" rx="28.46"/><rect class="cls-6" x="435.44" y="1033.95" width="421.19" height="58.25" rx="27.97"/><path class="cls-1" d="M840.7,1037.37H472.1A29.12,29.12,0,0,1,443,1008.25h0a29.13,29.13,0,0,1,29.13-29.12H840.7a29.12,29.12,0,0,1,29.12,29.12h0A29.12,29.12,0,0,1,840.7,1037.37Z"/><path class="cls-6" d="M824.79,979.86H456.19a29.13,29.13,0,0,1-29.13-29.12h0a29.13,29.13,0,0,1,29.13-29.12h368.6a29.12,29.12,0,0,1,29.12,29.12h0A29.12,29.12,0,0,1,824.79,979.86Z"/><rect class="cls-6" x="461.64" y="809.1" width="410.16" height="58.25" rx="28.55"/><rect class="cls-1" x="507.68" y="865.1" width="395.24" height="58.25" rx="28.02"/><circle class="cls-4" cx="366.46" cy="1103.59" r="171" transform="translate(-673.02 582.36) rotate(-45)"/><path class="cls-6" d="M463.74,998.11a143.49,143.49,0,1,1-202.76,8.2A143.47,143.47,0,0,1,463.74,998.11Z"/><path class="cls-7" d="M460.57,1148.4a11.38,11.38,0,0,1-.55,14.46,112,112,0,0,1-33.32,24.81c-21.34,10.48-45.86,13.68-69,5.78-14.46-4.94-28.25-15-38.62-28.8l-12.61,6.19a8.66,8.66,0,0,1-11.58-3.95l-.16-.33a8.65,8.65,0,0,1,3.95-11.57l10.35-5.08c-2.07-3.4-3.5-5.5-4.45-7.45a84.91,84.91,0,0,1-4.59-11.79l-10.67,5.24a8.66,8.66,0,0,1-11.58-4h0a8.66,8.66,0,0,1,3.95-11.57l12.94-6.35c-3.74-16.62-3.14-33.38,1.8-47.84,8.4-24.6,26.9-43.32,49.22-54.27a97.5,97.5,0,0,1,32.95-9.94,11.66,11.66,0,0,1,12.8,9.91l0,.2a11.7,11.7,0,0,1-10,13.24,83.66,83.66,0,0,0-25.58,8.09c-14.23,7-26.24,18.5-32.16,35.06a51.83,51.83,0,0,0-.88,31.74l72.78-35.73a8.64,8.64,0,0,1,11.57,4h0a8.65,8.65,0,0,1-3.95,11.57l-76,37.32c1.42,3.72,2.84,7.43,4,9.7,1.42,2.91,2.85,5.82,5.08,9.54l76.17-37.39a8.83,8.83,0,0,1,11.82,4h0a8.83,8.83,0,0,1-4,11.82l-72.93,35.8a54.94,54.94,0,0,0,24.05,17.1c17.2,5.6,32.36,3.78,48.53-4.16a95.06,95.06,0,0,0,23.82-16.68,11.4,11.4,0,0,1,17,1.31Z"/><path class="cls-10" d="M460.55,644.71A9,9,0,0,1,459,656.09a89,89,0,0,1-28.21,17c-17.66,6.62-37.27,7.26-54.93-.76-11-5-21.14-14-28.27-25.71l-10.44,3.91a6.86,6.86,0,0,1-8.83-4l-.1-.27a6.85,6.85,0,0,1,4-8.83l8.56-3.21c-1.37-2.85-2.34-4.62-2.94-6.23a66.38,66.38,0,0,1-2.71-9.66l-8.83,3.31a6.87,6.87,0,0,1-8.84-4h0a6.86,6.86,0,0,1,4-8.83l10.7-4c-1.68-13.41.09-26.59,5.1-37.63,8.53-18.77,24.58-32.12,43-39a77.27,77.27,0,0,1,26.77-5.31,9.25,9.25,0,0,1,9.34,8.81v.16a9.27,9.27,0,0,1-8.94,9.68,66.56,66.56,0,0,0-20.82,4.42c-11.78,4.42-22.14,12.58-28.09,25.19a41.11,41.11,0,0,0-3.14,25l60.2-22.59a6.86,6.86,0,0,1,8.84,4h0a6.86,6.86,0,0,1-4,8.83l-62.89,23.6c.84,3.05,1.68,6.09,2.38,8,.9,2.41,1.81,4.82,3.28,7.93l63-23.65a7,7,0,0,1,9,4.09h0a7,7,0,0,1-4.09,9L370.87,637.9a43.61,43.61,0,0,0,17.66,15.35c13.15,5.75,25.26,5.48,38.64.45a75.55,75.55,0,0,0,20.09-11.32,9,9,0,0,1,13.29,2.33Z"/><path class="cls-6" d="M1019.34,443.48l19.21-9.72,18.9,10.31a3,3,0,0,0,4.35-3.05l-3.32-21.28L1074.13,405a3,3,0,0,0-1.56-5.07l-21.26-3.42L1042.08,377a3,3,0,0,0-5.31-.08L1027,396.08l-21.35,2.77a3,3,0,0,0-1.72,5l15.18,15.26-4,21.17A3,3,0,0,0,1019.34,443.48Z"/><polygon class="cls-11" points="633.77 53.02 613.91 55.03 607.14 23.44 577.75 22.81 568.82 0 557.27 4.52 569.22 35.03 597.07 35.63 604.11 68.49 633.99 65.46 633.77 53.02"/><path class="cls-1" d="M1041.72,526.36l21.24,7s33.68-10.91,37-17.77,4.25-23.52,9-24,14.06,1.11,16.26,12.51c1.6,8.27-10.51,32.18-8.62,34.73,1.18,1.59,13.28,6,22.16,9a16.55,16.55,0,0,1,11,13.36h0a9.12,9.12,0,0,1-5.69,9.8L1138,573.4l2,6.31a9.11,9.11,0,0,1-5.76,11.3l-4.73,1.58,1.51,3.85a9.1,9.1,0,0,1-5.88,12l-4.13,1.2.17,1.11a9.1,9.1,0,0,1-6.63,10.18l-4.1,1.07-56.57-18.67a40.38,40.38,0,0,1-14.34-8.32l-18.79-9.92a4.67,4.67,0,0,1-2.18-5.67l17.42-50.16A4.64,4.64,0,0,1,1041.72,526.36Z"/><path class="cls-6" d="M360.7,457.9c-.28-.78-6.93-12.16-15.52-24.51-39.94-57.55-99.18-113-168.64-110.94l0-.42c31.4-3.44,62.18,4.92,89.19,19.83,44.56,24,88,69.8,111.74,105Z"/><path class="cls-12" d="M817.52,386.09s2-4.11,1.92-13.63c-.16-11.76-2.51-29.52-3-31.09-.86-2.84,37.2-14.77,37.2-14.77s61.05-3.12,70.14-9.94,16.73-9.62,12.49-2.55c-7.67,12.78-25.56,31.52-29.53,34.08s-51.4,14.48-52.25,14.48-.57,29.81-.57,29.81Z"/><path class="cls-13" d="M857.13,373.39s-39.53-6.72-40.25-2.77c-16,87.46-18.68,116.37-20.44,117.28-6,3.09-92.06-72.42-106.28-77.36-6.8-2.37-14.2-2-21.3-1.76-16.91.5-11.21.09-20.12.53v0l-.76.05.09,15.91c19.06,17.14,62.69,276.84,66.36,276.67,4.1-.19,90.33,21.51,88.81,14.25-.25-1.19-58.46-48.82-75-117.57C722.74,575.56,720,550.71,717,529c19.16,9.6,94,46.43,105.85,41.56C859.74,555.4,857.13,373.39,857.13,373.39Z"/><path class="cls-12" d="M1005.63,834.5s80.22,62.84,82.9,74c3.85,16,77.31-5.05,59.6-8.31-4.08-.76-17.12-4.06-18.19-4.64-5.74-3.06-77.12-89.08-77.12-89.08Z"/><path class="cls-14" d="M1182.58,900.17,1131.36,896s-14.64,12.12-42.78,12.69a65.55,65.55,0,0,0-2.36,27.88c.37,2.59.8,10.42,3.41,10.24,9.47-.64,34.68-6.91,63.41-12.66,0,0,38.61-8.17,60.91-21.51S1182.58,900.17,1182.58,900.17Z"/><path class="cls-15" d="M646.17,676.86s58.75,9.88,123.72-5.32C845.07,654,928.2,637.69,952.56,651.85c19.61,11.4,142,196.4,142,196.4l-47.28,34.5-134.81-151s-172,63.46-210.62,56.42C613.91,772.21,612.66,702,646.17,676.86Z"/><polygon class="cls-15" points="710.39 639.53 769.18 709.39 660.13 742.61 646.17 676.87 710.39 639.53"/><path class="cls-12" d="M829.85,958.62s-3.57,97-5.79,113.46,41.18,65.63,35.64,48.49c-1.28-3.94-4.56-17-4.57-18.21,0-6.5,16.09-117.19,16.09-117.19Z"/><path class="cls-14" d="M876.06,1150.88l-20.66-47.05s-17.62-7.12-31.49-31.61a65.63,65.63,0,0,0-25.65,11.17c-2.1,1.55-16.45,12-15.45,14.47,3.68,8.91,23.21,28,44.58,48.84,0,0,30.28,24.42,52.62,37.71S876.06,1150.88,876.06,1150.88Z"/><path class="cls-5" d="M925.07,767.32c-20.54-27.39-186.34-53.41-186.34-53.41L692.5,625.05l-102.22,63s10.22,81.35,17.89,103.08c10.22,29,78.92,30.44,120.88,30,38.61-.4,109.13,7.48,109.13,7.48l-23.85,210.41s46.88,10.67,60.06,9C875.87,1047.82,950.63,801.39,925.07,767.32Z"/><path class="cls-7" d="M648.56,409.52l-57.68,3.16s-1.32.47-1.72.54c-4.7.87-.43,168.95,3.76,231.73s12.69,89.15,12.69,89.15,78.22-13.89,102.23-23.21c10-3.87,34.07-34,34.07-34s-24.63-33.12-37-86.92c-9.57-41.49-21.37-115-28.13-130.39C661.23,424.31,648.56,409.52,648.56,409.52Z"/><path class="cls-12" d="M592.53,361.82l-1.64,50.92s37.33,64.33,56.5,55.37c16.09-7.52,1.81-56.46,1.81-56.46s-2.78-11.22-6.65-24.11c-2.7-9-4.94-18.76-4.78-25.92C638.18,344.21,592.53,361.82,592.53,361.82Z"/><path class="cls-14" d="M637.13,245.67s19,28.68,20.45,52.82-3.69,40.61-3.69,40.61l-61.06-73Z"/><path class="cls-4" d="M663.9,293.55c.86,8.45-2.43,15.71-7.34,16.21s-9.59-5.94-10.45-14.39,2.42-15.71,7.34-16.21S663,285.1,663.9,293.55Z"/><path class="cls-12" d="M573.08,277.81c-1.4-.3-1.26,70,19.1,86.49s55.81,18,66.16,1.34c11.45-18.42.56-92.46-29.73-108.18S573.08,277.81,573.08,277.81Z"/><path class="cls-14" d="M567.91,234.24c-15.54,13.63-23.07,23.59-33.59,47.82-12.93,29.8,12.73,60.67,34.25,72.94s23.34,27.33,23.34,27.33l.85-9.37c.92-7.27-1.28-11.43-3.33-15.83-1.84-3.91-7.72-17.33-10-20.87-6.06-9.34-7.25-11.36-4.26-20.23,2.3-6.84-.37-21.9,3.19-33.16l29-6.24s18.13-4.36,27.28-14.92C660.87,231.39,608.91,197.58,567.91,234.24Z"/><path class="cls-12" d="M582.05,323.71c3.56,7.71,2.82,15.65-1.66,17.72s-11-2.49-14.57-10.2-2.83-15.65,1.65-17.72S578.48,316,582.05,323.71Z"/><path class="cls-6" d="M192,348.89l-4.7-32.37,24-22.22a4.49,4.49,0,0,0-2.29-7.72L176.72,281,163,251.35a4.5,4.5,0,0,0-8.06-.2l-15.22,28.94L107.25,284a4.5,4.5,0,0,0-2.69,7.6L127.39,315,121,347.07a4.5,4.5,0,0,0,6.4,4.9l29.33-14.47,28.55,16A4.49,4.49,0,0,0,192,348.89Z"/><path class="cls-16" d="M384.68,129.9c3.29,13.53,9.23,34.9,9.23,34.9-.47,5.88-2.21,30.33-4.27,60.3l44.05-17.63s-.52-48.83,1.44-51.82c1.66-2.53,4.46.62,18-18.7,3.9-5.58,4.63-15.54,4.63-15.54s.8-12.27-2-13.41-5.92.69-6.92,2.81-.74,7-1.73,9.17-7.37,4.68-10.06,4.54.34-36.28.34-36.28,1.5-10.25,2.26-13.61c.64-2.86,3.25-11.24,3.25-11.24s3-12.17-.72-13.1c-2.23-.55-7.91,9.34-11.8,19.83-4.19,11.3-6.56,23.28-7.76,23.12-2.81-.38-1.32-20.2-1.32-20.2S424.11,64,424,59.68c2.65-5.25,4.4-15-.26-15.8-.86-.15-7,12.22-7,12.22s-2.41,8.71-3.82,12.79c-2.48,7.18-2.86,18.51-4.15,23.52-1.08,4.15-2.05,2.45-2.5,2.62s.26-5.6.95-13.49c.34-4-.11-8.55,1-13.08a94.08,94.08,0,0,0,1.88-13.8c.76-10.25-5.7-9.2-7.93.17-.85,3.57-1.74,7.47-2.63,11.42-3.47,15.37-3.37,30.17-5,30.3-2.15.16-.73-26.8-.73-26.8s-3.31-14.92-6.59-1.08a120.94,120.94,0,0,0-3.35,29.76C384.23,102.35,381.39,116.38,384.68,129.9Z"/><path class="cls-13" d="M590.81,412.77s-57.1-2.69-71.86-9.36c-8.94-4.05-82.41-63.25-82.41-63.25l.82-158.52-51.67-3.93s-26.8,175.21-17.52,194.39c9.59,19.81,117.14,101.34,138.65,136.72,12.39,20.39,38.23,297.6,42.14,300.1,27.83,14.48,113.76,29,111.74,20.16C604.76,586.29,590.81,412.77,590.81,412.77Z"/><circle class="cls-1" cx="846.13" cy="172.03" r="171.85"/><circle class="cls-6" cx="846.13" cy="172.03" r="144.21" transform="translate(126.18 648.69) rotate(-45)"/><path class="cls-7" d="M801.49,264.63l8.2-22.64A116.73,116.73,0,0,1,783,226.57a14.67,14.67,0,0,1-3.07-19.81l.52-.77a14.63,14.63,0,0,1,21.22-3.21,85.57,85.57,0,0,0,24.23,13.83c13.58,4.92,24.77,3,28.22-6.48,3.29-9.06-2.26-17.54-17.73-29.89-22.38-17.81-35.46-36-27.08-59.14,7.6-21,28.33-32,55.64-27.81l8.2-22.63,23.35,8.46-7.6,21a108.13,108.13,0,0,1,20.6,11,14.63,14.63,0,0,1,3.67,20.24h0a14.64,14.64,0,0,1-20.76,3.56,78,78,0,0,0-19.86-10.56c-15.48-5.61-22.9-.75-25.32,5.92-2.85,7.86,3.67,15.88,21.16,30.85,24.72,20.28,31.41,37.53,23.63,59-7.69,21.21-29.26,33.87-58.38,28.7l-8.81,24.3Z"/><path class="cls-12" d="M841.73,344.78s15.9-6.82,20.16-8.24,17.89-4,17.89-4,21.16-21.73,26.55-22.29S894,334,894,334l-7.38,7.1s11.92-10.23,14.19-11.65S921,302.18,925.5,303.89s-7.67,19.87-13.63,29.53S878.64,349,878.64,349Z"/><path class="cls-6" d="M1031.78,414.93c0,4.26-96.6,5.44-116.62,91.07l-12.87-4.23c28.68-87,124.3-83.55,129-86.75.06,0,.09-.09.08-.09Z"/><path class="cls-6" d="M1438.13,965.83l3.32-11.42c17.56-3.32,32.67-15.27,37.65-32.4a102.6,102.6,0,0,0,3.51-16.32l-23.53-6.83,4.19-14.39,21.24,6.17a157.07,157.07,0,0,1,4.65-25.39c7.84-27,31.44-39.16,56.79-31.79a60.59,60.59,0,0,1,17,7.62,8.34,8.34,0,0,1,2.27,11.46h0a8.38,8.38,0,0,1-11.45,2.53,50.71,50.71,0,0,0-12.5-5.4c-17.81-5.17-28.7,5-33.42,21.25-2.85,9.82-3.61,17.52-4.36,25.23l32.89,9.56-4.19,14.39-31.06-9c-1.83,8.88-3.9,17.69-8.34,25.31a49.63,49.63,0,0,1-22.93,20.09l-.13.45,60,17.45a8.36,8.36,0,0,1,5.7,10.37l-.18.6a8.36,8.36,0,0,1-10.37,5.7Z"/></g></g></svg>